<?xml version="1.0" encoding="UTF-8"?>
<svg width="456px" height="120px" viewBox="0 0 456 120" version="1.1" xmlns="http://www.w3.org/2000/svg" xmlns:xlink="http://www.w3.org/1999/xlink">
    <!-- Generator: Sketch 49.3 (51167) - http://www.bohemiancoding.com/sketch -->
    <title>Group</title>
    <desc>Created with Sketch.</desc>
    <defs></defs>
    <g id="Logo-drafts" stroke="none" stroke-width="1" fill="none" fill-rule="evenodd">
        <g id="2---Sneak-peak" transform="translate(-678.000000, -580.000000)">
            <g id="Group" transform="translate(678.000000, 580.000000)">
                <g id="Page-1" fill="#01D2C5">
                    <path d="M93.5190089,39.769545 C83.9215893,48.290673 35.4969229,54.6542283 11.7084654,56.5849134 C1.69871535,57.3961436 8.19216917e-13,58.3315199 9.09494702e-13,59.9989298 C9.99772487e-13,61.6663397 1.73307622,62.6059968 11.7771871,63.4215079 C35.57853,65.3500526 83.9301795,71.7200293 93.5190089,80.230455 C110.265636,95.1022956 103.140052,120 111.161166,120 C117.981799,120 113.59005,96.9901718 128.292206,80.230455 C141.525435,65.1424291 166.8,63.1582327 166.8,59.9989298 C166.8,56.8439077 141.525435,54.8575709 128.292206,39.769545 C113.59005,23.0119687 117.981799,0 111.161166,0 C103.140052,0 110.265636,24.8998448 93.5190089,39.769545" id="Fill-1"></path>
                </g>
                <g id="Typo" transform="translate(184.800000, 38.400000)" fill="#FFFFFF">
                    <path d="M3.11860308,0 L21.6268344,0 C40.9486143,0 49.0841006,6.71596639 49.0841006,21.1764706 C49.0841006,35.6369748 40.9486143,42.3529412 21.6268344,42.3529412 L3.11860308,42.3529412 C1.4237101,42.3529412 0,41.1428571 0,39.6302521 L0,2.84369748 C0,1.27058824 1.35591438,0 3.11860308,0 Z M21.2878558,8.34957983 L12.4744123,8.34957983 L12.4744123,34.0033613 L21.2878558,34.0033613 C33.4232895,34.0033613 36.6096883,30.2521008 36.6096883,21.1764706 C36.6096883,12.1008403 33.4232895,8.34957983 21.2878558,8.34957983 Z M51.7767203,39.6302521 L60.1155938,11.4957983 C62.8952182,2.11764706 72.4544146,0 82.0814067,0 L99.9116808,0 C101.538778,0 102.759101,1.27058824 102.759101,2.72268908 L102.759101,39.6302521 C102.759101,41.1428571 101.335391,42.3529412 99.640498,42.3529412 L93.4032918,42.3529412 C91.6406031,42.3529412 90.2846887,41.1428571 90.2846887,39.5697479 L90.2846887,32.1277311 L66.7595742,32.1277311 L64.5223155,39.5697479 C64.0477455,41.1428571 62.3528525,42.3529412 60.5901638,42.3529412 L54.0817748,42.3529412 C52.3190861,42.3529412 51.3021503,41.1428571 51.7767203,39.6302521 Z M72.115436,14.2789916 L69.2002201,23.7781513 L90.2846887,23.7781513 L90.2846887,8.34957983 L80.8610838,8.34957983 C76.5899535,8.34957983 73.2001675,10.6487395 72.115436,14.2789916 Z M112.501362,0 L154.534707,0 C156.297396,0 157.653311,1.21008403 157.653311,2.78319328 L157.653311,5.56638655 C157.653311,7.1394958 156.297396,8.34957983 154.534707,8.34957983 L139.755241,8.34957983 L139.755241,39.6302521 C139.755241,41.1428571 138.331531,42.3529412 136.636638,42.3529412 L130.399431,42.3529412 C128.704538,42.3529412 127.280828,41.1428571 127.280828,39.6302521 L127.280828,8.34957983 L112.501362,8.34957983 C110.738673,8.34957983 109.382759,7.1394958 109.382759,5.56638655 L109.382759,2.78319328 C109.382759,1.21008403 110.738673,0 112.501362,0 Z M184.819071,26.8638655 L176.75138,26.8638655 L176.75138,39.5697479 C176.75138,41.0823529 175.395466,42.3529412 173.632777,42.3529412 L167.395571,42.3529412 C165.700678,42.3529412 164.276968,41.0823529 164.276968,39.5697479 L164.276968,2.78319328 C164.276968,1.21008403 165.632882,0 167.327775,0 L194.64945,0 C204.547625,0 211.937359,5.08235294 211.937359,13.4319328 C211.937359,19.9663866 206.310314,22.9915966 199.462946,24.2016807 C202.242571,25.1092437 204.276442,27.2268908 206.988271,31.0386555 L213.02209,39.5697479 C214.106822,41.1428571 213.632251,42.3529412 211.869563,42.3529412 L203.937464,42.3529412 C202.242571,42.3529412 199.937516,41.1428571 198.852785,39.5697479 L193.22574,31.7042017 C191.530847,29.3445378 189.090201,26.8638655 184.819071,26.8638655 Z M190.85289,8.34957983 L176.75138,8.34957983 L176.75138,18.5142857 L190.85289,18.5142857 C194.64945,18.5142857 199.462946,17.3042017 199.462946,13.4319328 C199.462946,9.55966387 194.64945,8.34957983 190.85289,8.34957983 Z" id="DATRA"></path>
                    <path d="M219.717589,39.6302521 L228.13825,11.4957983 C230.945136,2.11764706 240.598088,0 250.319501,0 L268.324653,0 C269.967708,0 271.2,1.27058824 271.2,2.72268908 L271.2,39.6302521 C271.2,41.1428571 269.762326,42.3529412 268.05081,42.3529412 L261.75243,42.3529412 C259.972453,42.3529412 258.60324,41.1428571 258.60324,39.5697479 L258.60324,32.1277311 L234.847394,32.1277311 L232.588192,39.5697479 C232.108968,41.1428571 230.397451,42.3529412 228.617474,42.3529412 L222.045252,42.3529412 C220.265275,42.3529412 219.238365,41.1428571 219.717589,39.6302521 Z M240.255785,14.2789916 L237.311977,23.7781513 L258.60324,23.7781513 L258.60324,8.34957983 L249.087209,8.34957983 C244.774188,8.34957983 241.351156,10.6487395 240.255785,14.2789916 Z" id="Combined-Shape" transform="translate(245.400000, 21.176471) scale(-1, 1) translate(-245.400000, -21.176471) "></path>
                </g>
            </g>
        </g>
    </g>
</svg>